<svg version="1.0" xmlns="http://www.w3.org/2000/svg" preserveAspectRatio="xMidYMid meet" viewBox="6.32 8.5 287.3 336">
<metadata>
Created by potrace 1.10, written by Peter Selinger 2001-2011
</metadata>
<g transform="translate(0.000000,351.000000) scale(0.100000,-0.100000)" fill="#000000" stroke="none">
<path d="M67 3245 c-3 -105 -2 -184 4 -190 5 -5 9 6 10 30 1 22 4 31 6 20 3 -11 10 -26 16 -34 9 -10 7 -16 -8 -27 -26 -19 -30 -64 -5 -64 25 0 36 19 15 26 -14 6 -14 9 -2 23 20 23 28 61 12 61 -7 0 -11 9 -8 23 3 14 -2 31 -11 40 -30 29 16 107 62 107 25 0 25 -1 7 -14 -16 -12 -17 -16 -6 -30 7 -9 10 -16 5 -16 -5 0 -1 -5 9 -11 9 -6 15 -14 12 -20 -4 -5 4 -9 17 -9 18 0 20 -2 8 -10 -9 -6 -10 -10 -3 -10 24 0 22 19 -4 39 -27 19 -27 20 -5 18 12 -1 22 -5 22 -9 0 -4 7 -8 16 -8 10 0 14 -6 10 -15 -3 -8 -1 -15 5 -15 6 0 7 -4 4 -10 -3 -5 -1 -10 5 -10 7 0 10 6 7 14 -3 8 5 24 18 36 23 22 24 22 22 2 0 -11 -4 -19 -8 -16 -4 2 -10 0 -14 -6 -3 -5 -1 -10 6 -10 8 0 8 -4 -1 -15 -15 -19 -10 -19 25 -1 17 9 22 16 13 19 -10 4 -10 6 0 6 6 1 12 6 12 12 0 5 -5 7 -11 3 -7 -4 -10 -1 -7 7 3 8 13 16 23 18 15 3 17 -2 11 -29 -4 -25 -2 -36 11 -46 15 -11 221 -13 1134 -14 981 0 1118 2 1129 15 14 17 56 20 65 5 3 -5 11 -10 17 -10 7 0 7 4 -1 13 -6 8 -8 17 -4 20 3 4 1 7 -5 7 -7 0 -11 3 -11 8 3 18 -2 32 -11 32 -5 0 -6 -7 -3 -17 5 -12 3 -14 -7 -8 -10 6 -12 4 -7 -7 4 -11 -2 -18 -20 -23 -29 -7 -44 1 -19 11 9 3 16 15 16 25 0 10 6 19 14 19 8 0 16 4 18 10 2 5 18 -6 36 -25 18 -19 28 -35 22 -35 -6 0 -8 -4 -5 -10 3 -5 11 -10 16 -10 6 0 7 5 4 10 -3 6 -2 10 4 10 6 0 8 6 5 14 -3 7 3 17 13 21 36 16 45 13 24 -6 -21 -20 -20 -40 2 -38 9 0 8 2 -1 6 -6 2 -10 9 -7 13 3 5 12 7 20 4 8 -4 13 -10 10 -14 -3 -5 -1 -11 5 -15 5 -3 10 -2 10 4 0 6 8 8 18 5 14 -5 15 -4 2 5 -13 9 -13 11 1 11 17 0 29 19 29 46 0 12 -2 12 -14 2 -8 -7 -12 -16 -10 -19 7 -12 -25 -31 -37 -23 -9 5 -7 11 6 21 11 7 15 13 11 13 -5 0 -3 7 4 15 12 15 6 35 -11 35 -6 0 -7 -5 -3 -12 5 -8 0 -9 -15 -5 -18 4 -20 3 -10 -9 6 -8 9 -15 5 -15 -3 -1 -10 -2 -15 -3 -5 0 -12 -4 -16 -8 -8 -7 -75 10 -92 24 -30 24 1 88 43 88 12 0 15 -6 10 -26 -6 -22 -4 -25 10 -20 13 5 14 4 6 -7 -14 -16 -6 -27 17 -26 12 0 11 3 -4 9 -18 8 -18 9 4 9 20 1 22 4 13 13 -15 15 -16 38 -1 38 6 0 9 -6 6 -14 -5 -11 0 -13 25 -6 37 11 60 29 52 42 -4 6 0 14 7 19 11 7 10 9 -3 9 -10 0 -18 4 -18 9 0 5 9 7 20 4 14 -4 20 0 20 11 0 9 -5 16 -11 16 -5 0 -7 -4 -4 -10 3 -5 2 -10 -4 -10 -5 0 -13 5 -16 10 -11 18 -23 10 -18 -12 3 -17 2 -19 -5 -10 -8 11 -10 11 -15 -1 -8 -21 3 -29 20 -16 17 15 18 -12 1 -29 -15 -15 -48 -16 -48 0 0 6 -9 3 -20 -7 -26 -24 -25 -16 4 35 23 41 63 70 95 70 22 -1 51 -24 51 -41 0 -11 -2 -11 -10 1 -7 11 -10 7 -10 -18 0 -20 4 -31 10 -27 14 9 1 -48 -13 -57 -6 -3 -18 -1 -27 4 -10 7 -25 8 -36 3 -18 -8 -17 -9 3 -12 32 -6 73 -59 73 -94 0 -17 -4 -28 -9 -25 -5 3 -11 -4 -14 -16 -4 -13 -1 -26 6 -30 8 -5 7 -8 -5 -8 -11 0 -15 -6 -11 -19 3 -11 -2 -21 -12 -25 -12 -4 -16 -2 -12 8 4 10 1 13 -7 10 -7 -3 -16 2 -20 12 -4 11 -2 15 8 11 8 -3 16 2 19 12 2 10 -1 18 -9 18 -7 0 -11 -4 -8 -9 3 -4 -2 -8 -10 -8 -9 0 -16 5 -16 10 0 17 -47 11 -54 -7 -6 -15 -8 -15 -17 -3 -8 13 -11 13 -22 -1 -6 -8 -20 -18 -29 -22 -23 -8 -23 -43 -2 -51 15 -6 15 -9 3 -24 -18 -22 -18 -50 1 -62 10 -7 11 -10 3 -10 -9 0 -13 -17 -13 -53 0 -29 6 -59 13 -66 6 -8 7 -11 1 -8 -14 8 -14 -291 0 -312 6 -9 5 -12 -1 -8 -6 4 -9 -57 -7 -171 2 -97 3 -235 3 -305 1 -71 4 -126 9 -123 5 3 9 -1 9 -9 0 -8 -4 -12 -8 -10 -14 9 -3 -97 12 -106 12 -8 12 -10 0 -18 -14 -9 -25 -115 -11 -106 4 2 7 -2 7 -10 0 -8 -4 -12 -9 -9 -5 3 -8 -52 -9 -123 0 -70 -1 -208 -3 -305 -1 -123 1 -175 8 -171 7 4 7 1 0 -8 -16 -20 -16 -321 0 -312 8 5 8 3 -1 -8 -14 -18 -21 -185 -7 -182 5 1 10 -11 9 -26 0 -18 -4 -27 -12 -24 -6 3 -11 -1 -9 -9 3 -21 17 -39 26 -33 4 3 11 -2 14 -11 4 -10 13 -13 26 -9 13 4 20 2 20 -8 0 -26 44 -13 60 18 9 17 21 29 29 27 7 -1 10 2 6 8 -3 5 1 10 11 10 11 0 15 -6 11 -20 -4 -14 0 -20 11 -20 11 0 13 -3 5 -11 -12 -12 -5 -52 8 -43 15 9 10 -45 -6 -76 -18 -35 -47 -52 -71 -43 -12 4 -15 3 -10 -5 9 -14 48 -16 62 -2 15 15 31 -2 38 -40 5 -26 4 -31 -3 -20 -8 12 -11 7 -11 -20 0 -26 3 -31 10 -20 7 11 10 12 10 2 0 -23 -27 -42 -60 -42 -28 0 -30 2 -16 15 9 9 12 23 9 32 -6 15 -5 16 9 3 8 -8 13 -21 10 -29 -3 -9 -1 -12 6 -7 15 9 16 36 1 36 -5 0 -7 5 -3 12 5 8 0 9 -14 6 -12 -4 -25 -2 -28 3 -9 15 -23 0 -21 -22 1 -19 2 -19 15 -2 13 17 14 17 10 -2 -6 -38 -34 -28 -62 21 -31 56 -32 63 -6 39 11 -10 20 -13 20 -7 0 15 33 10 53 -6 18 -15 47 -5 47 17 0 12 -2 13 -9 3 -7 -12 -13 -11 -38 1 -19 10 -34 12 -44 6 -20 -13 -29 -11 -29 6 0 8 3 14 8 12 4 -1 9 2 12 7 3 5 -8 13 -23 17 -24 6 -26 5 -16 -7 10 -12 9 -13 -5 -8 -14 6 -16 2 -10 -21 6 -23 4 -27 -9 -22 -9 3 -18 1 -21 -6 -2 -7 -5 -5 -5 4 -1 9 -8 19 -16 23 -9 3 -14 17 -13 39 1 35 6 38 79 41 27 1 35 5 31 15 -3 9 0 12 9 9 16 -5 19 -27 7 -45 -7 -8 -3 -10 13 -6 15 4 20 3 15 -5 -8 -13 6 -17 17 -6 8 8 -24 64 -36 64 -4 0 -6 4 -3 8 2 4 -4 9 -15 9 -11 1 -17 -2 -14 -8 4 -5 -1 -9 -10 -9 -11 0 -15 5 -11 15 3 8 1 15 -5 15 -6 0 -7 4 -4 10 9 15 -4 12 -21 -5 -14 -13 -13 -15 3 -16 14 0 14 -2 3 -6 -8 -4 -23 -16 -33 -27 l-18 -21 11 22 c6 13 8 23 4 23 -3 0 1 12 11 26 16 25 16 25 -4 15 -25 -14 -32 -14 -28 1 1 6 -7 14 -17 16 -19 4 -19 3 -2 -13 10 -10 14 -25 11 -36 -4 -11 -2 -19 5 -19 6 0 8 -4 5 -10 -10 -16 -35 -11 -35 6 0 9 -8 23 -17 31 -16 13 -16 13 7 7 24 -6 24 -6 8 12 -17 19 -47 19 -1123 19 -608 0 -1110 2 -1114 5 -5 3 -11 19 -14 35 -4 30 -4 30 -6 -4 0 -19 -9 -43 -18 -54 -13 -14 -13 -18 -3 -11 9 5 471 9 1120 10 l1105 1 23 -25 c13 -15 20 -33 17 -43 -3 -10 1 -19 10 -23 17 -6 21 -52 4 -58 -7 -2 -5 -9 5 -17 14 -12 16 -11 10 5 -6 17 -4 16 15 -3 23 -24 29 -57 9 -50 -7 2 -12 11 -11 18 2 8 -6 16 -17 17 -11 1 -29 3 -40 4 -10 1 -17 4 -15 7 3 2 -5 11 -17 20 -16 11 -43 14 -104 12 -46 -1 -92 2 -102 8 -11 6 -22 7 -26 4 -9 -9 -95 -10 -90 -1 2 4 0 9 -6 13 -5 3 -10 1 -10 -5 0 -7 -7 -10 -15 -6 -8 3 -15 1 -15 -5 0 -8 -16 -9 -47 -4 -57 8 -421 7 -435 -1 -11 -7 -87 14 -103 28 -6 6 182 8 461 6 432 -3 472 -4 488 -20 18 -19 31 -24 22 -9 -3 5 1 14 10 21 12 11 12 15 2 21 -16 11 -29 11 -25 2 3 -10 -7 -13 -30 -12 -11 0 -13 3 -5 6 6 2 12 10 12 17 0 9 9 12 26 8 19 -3 25 -1 20 7 -9 13 -65 12 -84 -2 -9 -7 -12 -7 -10 3 2 10 -25 13 -124 13 -71 0 -128 4 -128 8 0 5 -18 9 -41 9 -22 0 -38 -4 -35 -9 4 -5 -9 -6 -28 -1 -20 4 -39 3 -44 -2 -6 -6 -12 -6 -16 1 -4 7 -16 6 -37 -1 -25 -8 -33 -8 -40 3 -8 12 -11 12 -20 -1 -8 -11 -12 -12 -16 -2 -2 6 -9 12 -14 12 -6 0 -7 -5 -3 -12 5 -8 3 -8 -7 -2 -20 12 -59 12 -52 -1 3 -5 0 -5 -7 2 -8 7 -20 9 -29 4 -23 -11 -46 -7 -43 8 1 7 -2 10 -8 6 -7 -4 -7 -13 1 -26 9 -19 9 -19 -10 -10 -11 6 -18 17 -15 25 4 10 -2 14 -19 12 -14 0 -23 -4 -20 -9 2 -4 -2 -7 -9 -7 -217 -5 -512 0 -521 9 -14 14 -27 14 -27 0 0 -5 4 -8 9 -5 12 8 36 -22 26 -32 -4 -4 -10 -1 -12 6 -3 6 -9 12 -14 12 -4 0 -6 -6 -3 -14 3 -8 0 -17 -6 -21 -6 -3 -10 -3 -9 2 3 19 -2 25 -14 15 -9 -8 -17 -8 -27 0 -13 8 -12 9 2 5 9 -3 19 0 22 8 3 9 0 12 -9 9 -7 -3 -23 0 -35 6 -26 14 -60 4 -60 -18 0 -14 -2 -15 -9 -2 -6 8 -7 18 -4 24 3 5 1 6 -6 2 -6 -4 -9 -12 -6 -17 4 -5 0 -15 -7 -23 -11 -11 -16 -11 -27 1 -11 12 -11 14 0 11 14 -3 19 3 19 23 0 8 -4 8 -13 0 -10 -8 -17 -7 -25 1 -9 9 -14 6 -20 -12 -7 -19 -10 -20 -15 -7 -4 12 -15 16 -36 13 -17 -2 -33 -1 -36 2 -10 10 -145 13 -145 3 0 -6 -52 -9 -128 -8 -70 0 -134 -3 -142 -8 -8 -5 -18 -10 -22 -11 -5 -1 -11 -2 -14 -3 -4 0 -1 -8 6 -16 9 -10 9 -15 1 -15 -18 0 -26 4 -24 12 2 4 -7 7 -19 5 -29 -3 -37 31 -12 51 18 14 18 14 1 8 -10 -3 -21 -6 -23 -6 -2 0 -4 -9 -4 -20 0 -13 -7 -20 -20 -20 -22 0 -27 16 -7 23 7 2 0 15 -21 34 -32 31 -44 70 -18 60 16 -6 36 11 36 30 0 7 -5 13 -11 13 -5 0 -7 -5 -3 -12 4 -7 3 -8 -4 -4 -8 5 -9 13 -2 25 6 12 5 22 -3 31 -9 10 -9 11 1 6 6 -4 12 -3 12 1 0 5 -6 15 -12 22 -11 11 -10 13 0 7 16 -9 16 6 0 23 -10 11 -10 13 0 7 16 -10 16 26 0 43 -11 11 -10 13 0 7 14 -8 12 19 -2 43 -6 10 -5 12 2 7 16 -10 15 7 0 23 -7 8 -8 11 -2 8 13 -8 13 101 -1 122 -5 9 -4 12 2 8 6 -4 9 51 8 156 -2 89 -4 262 -5 385 -2 122 -7 225 -11 228 -5 3 -9 10 -9 15 0 6 6 7 13 3 7 -5 6 0 -3 11 -8 10 -10 16 -3 12 8 -5 10 5 7 35 -3 24 -5 48 -6 55 -1 7 -5 10 -10 7 -4 -3 -8 1 -8 10 0 8 5 16 12 18 6 2 12 27 14 56 1 37 -2 50 -10 45 -8 -5 -8 -3 0 8 7 9 12 99 13 249 2 129 4 265 5 302 2 42 -1 65 -7 61 -6 -4 -7 -1 -1 8 12 19 13 320 1 312 -6 -4 -7 -1 -1 8 14 24 16 51 2 43 -10 -6 -11 -4 0 7 6 7 12 17 12 22 0 4 -6 5 -12 1 -10 -6 -10 -4 0 7 16 18 16 53 0 43 -10 -6 -10 -4 -2 7 13 16 15 51 2 43 -13 -8 -10 10 5 25 10 11 9 12 -3 6 -10 -6 -9 -1 4 13 22 25 15 52 -14 52 -11 0 -20 7 -20 15 0 8 -7 15 -15 15 -8 0 -15 -4 -15 -9 0 -5 -9 -7 -20 -4 -11 3 -20 0 -20 -6 0 -6 10 -11 22 -11 17 0 19 -3 10 -12 -8 -8 -15 -8 -27 2 -21 17 -19 29 8 40 21 8 21 9 -5 9 -16 1 -28 -3 -28 -9 0 -5 -7 -10 -16 -10 -8 0 -12 4 -9 10 3 6 -1 7 -9 4 -19 -7 -11 -24 11 -24 13 0 13 -3 3 -15 -7 -8 -16 -13 -20 -10 -8 5 -20 -19 -19 -38 0 -7 4 -3 9 8 8 18 9 17 9 -6 1 -15 -5 -32 -13 -39 -13 -10 -12 -17 4 -48 11 -21 20 -53 20 -72 0 -19 1 -48 2 -65 1 -16 1 -213 0 -437 -2 -382 -3 -408 -20 -408 -21 0 -45 -36 -35 -53 5 -9 3 -9 -9 0 -19 16 -28 7 -28 -25 l0 -25 23 20 c12 11 29 23 37 26 12 4 11 6 -3 6 -22 1 -14 16 16 33 19 10 20 9 9 -4 -10 -13 -10 -19 3 -32 18 -17 30 -21 21 -7 -3 5 1 15 10 22 13 10 17 10 24 -1 5 -8 12 -11 16 -7 11 11 -18 39 -34 32 -12 -4 -13 47 -7 382 3 213 8 389 10 392 3 2 11 -2 20 -9 9 -7 19 -10 22 -6 4 4 1 11 -7 17 -13 8 -12 11 3 20 17 10 17 12 -2 45 -21 35 -19 60 7 80 10 7 11 13 4 18 -16 10 -44 -5 -38 -21 3 -8 1 -11 -4 -8 -6 3 -10 2 -10 -4 0 -5 6 -11 12 -13 7 -3 3 -7 -9 -10 -19 -5 -21 -2 -18 36 1 22 -2 47 -8 54 -6 8 -6 12 2 12 6 0 11 5 11 11 0 6 -7 8 -16 5 -9 -4 -13 -2 -8 5 4 6 0 15 -7 20 -11 7 -11 9 3 9 14 0 16 7 11 35 -4 23 -2 35 6 35 6 0 11 -14 11 -32 0 -17 3 -28 7 -24 4 4 6 23 4 44 -2 31 -1 34 12 23 9 -7 24 -11 34 -9 17 3 18 -15 17 -392 -4 -806 -2 -744 -24 -770 -22 -25 -28 -56 -8 -44 7 5 9 2 5 -9 -3 -8 1 -21 9 -27 19 -16 18 -30 -3 -45 -17 -13 -17 -14 0 -33 17 -18 15 -52 -4 -52 -4 0 -6 7 -3 15 8 21 -2 19 -26 -5 -12 -12 -25 -18 -30 -15 -5 3 -20 -6 -33 -19 -27 -27 -22 -39 18 -49 19 -5 19 -5 -3 -12 -17 -6 -20 -10 -11 -16 8 -4 10 -11 6 -15 -8 -9 -39 15 -32 26 6 10 -33 45 -41 37 -10 -10 5 -59 16 -52 5 3 15 -3 22 -15 7 -11 21 -20 30 -20 16 0 17 -32 20 -425 3 -472 4 -480 59 -415 28 34 33 52 14 51 -6 -1 -11 -5 -11 -11 -1 -5 -3 -12 -4 -15 -1 -3 -3 -9 -4 -14 -3 -22 -12 -18 -14 6 -1 14 -8 33 -15 42 -11 14 -10 14 5 2 15 -11 19 -11 24 3 3 9 10 13 15 10 5 -3 9 0 9 6 0 6 -11 9 -24 8 l-25 -3 -6 387 c-7 381 -7 387 13 382 12 -4 22 0 26 12 8 22 -2 33 -14 14 -7 -12 -11 -12 -26 0 -15 13 -14 15 17 22 19 3 36 4 39 1 8 -8 15 -360 15 -773 l0 -385 -24 0 c-13 0 -26 -7 -29 -15 -5 -13 -3 -13 12 -1 13 11 20 11 28 3 9 -9 7 -12 -10 -12 -20 0 -33 -19 -14 -21 30 -3 48 -10 66 -28 18 -19 18 -21 3 -21 -9 0 -17 5 -17 10 0 6 -5 10 -11 10 -5 0 -7 -4 -4 -10 3 -5 2 -10 -4 -10 -6 0 -8 -7 -5 -15 4 -9 0 -15 -10 -15 -9 0 -16 -5 -16 -11 0 -5 -5 -7 -10 -4 -8 5 -7 11 1 21 9 11 7 14 -12 14 -18 0 -20 -3 -10 -9 11 -7 9 -10 -8 -16 -13 -4 -20 -9 -17 -12 3 -4 1 -12 -6 -20 -8 -10 -8 -17 0 -25 9 -9 12 -9 12 1 0 8 8 10 23 6 21 -6 21 -6 3 9 -11 9 -16 16 -10 17 5 0 22 3 38 5 16 3 42 1 57 -5 20 -7 29 -7 29 0 0 6 4 8 10 4 5 -3 7 -24 5 -46 -4 -33 -1 -40 10 -35 8 3 15 1 15 -5 0 -6 5 -7 11 -3 8 5 7 9 -1 14 -7 5 -14 22 -15 38 -1 24 2 29 14 25 25 -9 51 -35 45 -44 -9 -15 4 -10 22 9 16 16 56 17 488 20 259 2 467 0 463 -4 -18 -18 -81 -31 -134 -28 -108 7 -358 6 -406 -1 -31 -5 -47 -4 -47 4 0 6 -7 8 -15 5 -8 -4 -15 -1 -15 6 0 9 -4 9 -12 3 -19 -15 -87 -23 -93 -12 -4 5 -14 5 -26 -2 -11 -6 -58 -9 -104 -8 -57 2 -88 -1 -99 -10 -9 -7 -22 -11 -31 -7 -8 3 -14 1 -12 -5 1 -6 -8 -15 -21 -20 -15 -6 -21 -5 -17 1 3 6 1 10 -5 10 -6 0 -10 -10 -8 -22 2 -15 -3 -24 -14 -26 -17 -3 -19 13 -4 36 9 16 -2 31 -12 17 -4 -6 -15 -11 -26 -13 -15 -3 -18 1 -14 22 3 14 1 26 -4 26 -5 0 -7 4 -4 8 3 5 -8 6 -24 4 -18 -3 -27 -9 -24 -17 3 -7 1 -16 -5 -20 -6 -3 -14 1 -17 9 -3 9 -10 13 -15 10 -16 -10 -60 25 -74 59 -11 26 -11 34 2 53 8 14 12 32 8 44 -4 14 -2 20 7 18 8 -2 12 5 10 19 -2 16 2 23 13 23 10 0 13 -5 9 -12 -4 -7 -4 -10 1 -6 4 4 14 3 22 -3 11 -10 10 -14 -3 -24 -12 -8 -14 -14 -6 -19 7 -4 12 -2 12 3 0 6 5 11 10 11 6 0 10 -6 10 -12 0 -7 11 -14 25 -14 l26 -2 -26 24 c-21 20 -26 32 -24 64 2 21 0 42 -4 46 -4 4 -7 -9 -7 -30 0 -25 -4 -35 -11 -30 -7 4 -9 21 -6 40 5 30 3 34 -16 35 -18 1 -19 2 -4 6 11 3 16 11 13 18 -3 9 0 12 10 8 7 -3 14 0 14 6 0 6 -4 11 -10 11 -6 0 -6 10 1 27 12 33 3 85 -11 63 -5 -8 -7 -25 -4 -37 4 -13 -2 -39 -14 -62 -18 -34 -19 -41 -6 -51 8 -7 14 -20 14 -29 0 -21 -35 -24 -51 -5 -7 8 -8 14 -3 12 5 -2 10 0 12 5 6 18 1 27 -16 27 -26 0 -26 -57 0 -63 18 -5 26 -37 9 -37 -5 0 -12 -10 -14 -23 -2 -13 -5 -6 -6 17 0 25 -5 36 -10 30 -6 -5 -7 -82 -3 -194 l7 -185 250 5 c324 6 2026 6 2350 0 l250 -5 3 165 c2 91 0 193 -3 227 -6 54 -9 63 -27 63 -13 0 -18 -5 -16 -17 2 -10 10 -17 18 -15 10 2 11 0 2 -11 -7 -8 -24 -14 -38 -14 -15 -1 -30 -7 -35 -14 -6 -10 -9 -4 -9 18 0 17 -5 35 -12 39 -8 5 -9 -3 -5 -29 6 -36 5 -37 -26 -33 l-32 3 -2 359 c-2 466 8 800 23 797 18 -3 24 36 8 51 -11 12 -11 15 2 20 10 4 14 14 11 26 -3 14 -1 18 6 13 34 -21 35 -7 2 23 -21 19 -41 34 -46 34 -4 0 -2 15 6 34 8 18 11 37 7 41 -4 3 -1 5 7 3 23 -5 23 19 1 40 -22 20 -22 24 -27 591 l-5 571 24 0 c13 0 30 6 37 13 11 10 12 4 6 -32 -5 -31 -4 -42 4 -37 6 4 11 18 11 32 0 14 4 23 9 20 5 -3 9 -28 9 -56 0 -27 -4 -47 -9 -44 -5 3 -9 1 -9 -5 0 -5 6 -12 13 -14 7 -3 4 -6 -6 -6 -12 -1 -16 -5 -10 -13 4 -7 8 -29 9 -49 2 -31 -1 -36 -17 -32 -10 3 -16 9 -13 14 3 5 0 9 -6 9 -7 0 -9 -7 -6 -16 3 -9 -3 -29 -14 -45 -15 -20 -18 -33 -12 -46 5 -10 7 -24 5 -30 -6 -16 9 -17 25 -1 6 6 13 10 16 7 2 -2 6 -178 8 -390 4 -331 2 -386 -10 -382 -8 3 -18 0 -23 -8 -12 -19 -11 -29 2 -29 5 0 7 5 4 10 -3 6 1 10 9 10 8 0 18 -9 21 -20 4 -11 11 -17 17 -14 6 4 5 9 -3 15 -7 4 -11 11 -7 14 3 4 29 -10 57 -29 50 -35 61 -33 45 8 -5 14 -9 14 -22 4 -9 -7 -13 -8 -9 -2 8 14 -20 54 -39 54 -12 0 -14 56 -16 378 -4 479 -1 558 17 596 17 34 19 56 5 56 -5 0 -10 10 -10 21 0 18 2 19 15 9 8 -7 15 -19 15 -26 0 -8 8 -14 19 -14 25 0 31 50 31 269 l0 176 -1429 0 -1428 0 -6 -180z m174 142 c-8 -8 -18 -7 -37 3 -23 13 -24 15 -7 21 25 9 59 -9 44 -24z m-66 9 c16 -9 38 -35 50 -61 20 -41 21 -44 4 -29 -11 10 -19 12 -19 6 0 -7 -11 -12 -24 -12 -30 0 -41 27 -26 65 8 20 7 26 -2 22 -7 -2 -12 -12 -12 -21 1 -9 -4 -16 -12 -16 -7 0 -16 -4 -19 -10 -4 -6 1 -7 12 -4 14 4 13 1 -5 -14 -13 -12 -18 -23 -12 -27 5 -3 10 -1 10 5 0 6 11 5 30 -5 16 -8 35 -14 42 -13 7 2 12 -4 12 -14 -1 -11 8 -18 27 -20 23 -4 26 -2 17 9 -8 10 -7 12 4 8 12 -5 14 0 10 20 -4 22 -1 26 14 23 39 -6 62 -50 41 -75 -6 -9 -6 -13 2 -13 7 0 9 -5 6 -10 -4 -6 -11 -8 -16 -5 -5 3 -24 2 -43 -4 -19 -5 -38 -6 -41 -3 -4 4 -11 8 -16 8 -5 1 -12 2 -15 3 -4 0 -1 7 5 15 10 12 8 13 -11 9 -19 -5 -21 -3 -11 7 9 10 10 17 2 27 -13 15 -45 17 -54 3 -4 -7 -12 -7 -24 0 -20 10 -25 57 -9 78 7 8 7 12 -1 12 -18 0 -13 38 7 43 32 9 50 7 77 -7z m185 -1 c28 -16 44 -19 36 -7 -2 4 4 8 14 8 10 0 25 -11 31 -24 7 -13 25 -26 39 -28 27 -6 66 -31 59 -38 -7 -8 -79 19 -100 37 -10 9 -19 14 -19 10 0 -4 -5 -2 -12 5 -7 7 -19 12 -27 12 -11 0 -9 -5 7 -16 29 -20 28 -34 -2 -32 -14 1 -22 7 -19 14 7 19 -26 35 -79 38 -33 1 -32 0 -12 20 19 20 51 20 84 1z m290 -6 c124 -16 383 -14 488 3 45 8 82 12 82 8 0 -3 -46 -14 -102 -23 -116 -20 -299 -22 -428 -6 -126 15 -190 19 -190 10 0 -4 -7 -8 -15 -8 -12 0 -12 3 3 18 10 11 27 16 42 14 14 -2 68 -10 120 -16z m633 -5 c-3 -8 1 -14 11 -14 9 0 16 4 16 9 0 15 53 28 85 20 17 -4 22 -7 11 -8 -16 -1 -16 -3 5 -21 13 -10 19 -19 14 -20 -6 0 -17 6 -24 13 -11 10 -13 9 -8 -5 3 -9 -1 -22 -9 -29 -11 -9 -12 -14 -4 -19 8 -5 8 -9 -2 -12 -8 -3 -23 2 -35 12 -22 17 -22 18 -3 35 20 18 27 45 12 45 -5 0 -19 -9 -32 -20 -13 -11 -27 -20 -32 -20 -4 0 -7 -3 -5 -7 1 -5 -2 -9 -8 -10 -5 -1 -9 11 -7 28 1 16 -2 29 -8 29 -5 0 -7 -8 -3 -17 5 -14 3 -16 -7 -6 -18 17 -5 43 19 36 12 -3 17 -11 14 -19z m438 8 c21 26 45 14 33 -17 -7 -18 -8 -18 -16 1 -5 14 -7 10 -5 -15 1 -20 -3 -36 -10 -38 -7 -3 -13 2 -13 9 0 13 -51 58 -65 58 -11 0 -4 -28 10 -40 11 -9 12 -17 5 -31 -8 -15 -7 -17 5 -13 8 3 13 9 11 13 -3 4 -1 13 3 20 7 10 9 10 14 -2 8 -21 -24 -47 -49 -41 -11 3 -26 19 -33 35 -8 18 -19 28 -27 25 -8 -3 -11 0 -7 10 3 7 13 14 22 15 12 0 11 2 -4 9 -18 7 -16 8 10 12 18 2 44 -4 64 -15 l35 -19 17 24z m776 4 c-4 -10 -1 -13 7 -10 8 3 17 1 21 -5 8 -14 -28 -14 -42 0 -8 8 -45 6 -133 -5 -165 -22 -359 -20 -485 4 -106 21 -85 20 120 -1 107 -10 291 -2 440 21 76 11 78 11 72 -4z m222 -3 l22 -18 -33 -2 c-45 -3 -101 -9 -113 -13 -5 -1 -13 -2 -16 -2 -4 1 -15 -8 -24 -18 -10 -11 -28 -20 -40 -20 -11 0 -26 -5 -33 -12 -6 -6 -15 -9 -19 -5 -9 10 26 35 60 42 15 4 25 10 22 15 -3 4 2 11 11 14 8 3 12 10 9 16 -8 12 5 13 24 1 8 -5 26 -4 45 5 42 18 60 17 85 -3z m76 1 c-15 -15 -45 -19 -45 -6 0 14 10 20 35 20 20 0 22 -3 10 -14z m-1242 -3 c17 -1 17 -2 1 -18 -11 -12 -13 -18 -5 -21 12 -4 -33 -52 -49 -52 -14 0 -60 46 -53 53 3 4 0 13 -6 21 -10 12 -8 15 11 18 13 2 37 2 53 1 17 -1 38 -2 48 -2z m-1263 -51 c0 -13 -7 -20 -19 -20 -22 0 -35 15 -26 30 12 19 45 11 45 -10z m270 10 c0 -5 6 -10 13 -10 7 0 22 -6 33 -14 18 -14 16 -15 -18 -13 -20 1 -36 5 -35 9 1 4 -7 14 -18 22 -20 15 -20 15 3 16 12 0 22 -4 22 -10z m678 -18 c14 -21 13 -22 -6 -19 -12 2 -25 6 -28 10 -12 11 -354 8 -354 -3 0 -5 6 -10 13 -10 6 -1 -1 -8 -16 -16 -36 -19 -43 -13 -23 18 l16 24 -85 3 c-72 2 -85 0 -85 -13 0 -11 9 -16 28 -16 15 0 34 -5 42 -10 10 -6 20 -4 30 5 13 12 15 10 15 -10 0 -16 -7 -25 -22 -28 -16 -3 -20 0 -15 11 3 10 1 13 -6 8 -6 -3 -13 -2 -17 4 -11 18 -35 12 -28 -7 4 -13 -1 -11 -19 7 -13 14 -24 30 -24 35 1 6 -14 11 -31 13 -18 2 -33 6 -33 10 0 4 142 7 316 7 l317 0 15 -23z m1169 15 c3 -4 -8 -7 -25 -7 -24 0 -35 -7 -49 -30 -17 -30 -33 -39 -33 -20 0 6 -7 10 -15 10 -8 0 -15 -5 -15 -11 0 -5 -5 -7 -10 -4 -19 12 1 25 36 25 22 0 34 5 34 14 0 11 -46 13 -267 9 -148 -3 -276 -9 -285 -15 -14 -7 -18 -5 -18 11 0 11 5 21 11 23 20 7 629 1 636 -5z m63 -4 c0 -9 -3 -14 -6 -10 -4 3 -20 -1 -36 -9 -16 -8 -35 -13 -41 -10 -7 2 3 10 21 17 17 8 32 17 32 21 0 4 7 8 15 8 8 0 15 -7 15 -17z m156 1 c-3 -9 -6 -18 -6 -20 0 -2 -7 -4 -15 -4 -18 0 -19 12 -3 28 17 17 31 15 24 -4z m124 -4 c0 -21 -33 -29 -45 -10 -9 15 4 30 26 30 12 0 19 -7 19 -20z m-2414 -5 c4 -9 18 -22 33 -31 23 -13 23 -15 4 -11 -12 3 -24 0 -27 -7 -6 -16 -45 34 -39 51 7 18 22 16 29 -2z m2354 -6 c0 -15 -4 -19 -16 -15 -12 4 -15 2 -11 -9 4 -8 2 -17 -3 -20 -6 -4 -10 -2 -10 3 0 6 -10 8 -22 4 -14 -3 -19 -2 -14 6 4 7 14 12 21 12 8 0 19 9 25 20 14 26 30 26 30 -1z m-1260 -4 c0 -8 -1 -17 -2 -19 -5 -7 35 -46 46 -46 6 0 17 -9 24 -21 11 -17 20 -20 47 -15 19 4 36 2 40 -4 3 -5 1 -10 -6 -10 -10 0 -10 -2 0 -12 10 -11 15 -10 25 5 11 14 27 17 82 15 l69 -1 -69 -6 c-42 -4 -71 -11 -74 -18 -2 -8 -22 -13 -50 -13 -45 1 -46 1 -23 14 22 12 19 13 -37 12 -33 0 -64 -5 -69 -10 -5 -5 -3 -6 4 -2 7 4 21 2 30 -3 15 -9 12 -10 -17 -11 -30 0 -35 3 -36 25 -2 23 0 25 37 19 38 -6 53 6 27 22 -6 4 -8 3 -5 -4 11 -17 -76 -2 -90 16 -20 24 -15 40 5 16 18 -21 43 -27 41 -9 -3 24 -12 34 -23 28 -7 -4 -7 -2 1 8 10 12 10 18 1 27 -9 9 -8 12 5 12 9 0 17 -7 17 -15z m160 -5 c-30 -59 -30 -58 -10 -63 12 -3 24 3 34 17 8 11 15 16 15 10 2 -22 -26 -42 -66 -47 -49 -6 -66 14 -26 32 19 9 24 17 21 36 -3 13 -1 22 3 19 5 -3 9 0 9 5 0 6 7 11 15 11 12 0 13 -4 5 -20z m725 -60 c104 -1 241 9 265 19 14 5 19 10 11 10 -8 1 -12 3 -9 6 2 3 19 -2 36 -11 22 -10 32 -22 31 -37 0 -21 -1 -21 -10 -2 -8 17 -9 16 -6 -7 l4 -27 -33 25 c-23 18 -33 21 -36 12 -4 -10 -102 -14 -479 -16 -385 -2 -471 0 -461 10 10 10 72 13 250 14 130 0 256 4 280 8 29 5 42 4 42 -4 0 -7 8 -9 20 -5 12 4 20 2 20 -5 0 -6 5 -8 10 -5 14 9 2 25 -19 25 -11 0 -17 8 -17 25 l0 24 26 -29 c21 -25 32 -30 75 -30z m-1905 30 c-26 -16 112 -31 263 -29 27 0 55 -5 64 -12 12 -10 16 -10 23 0 4 8 13 10 19 7 6 -4 11 -2 11 4 0 8 13 9 43 4 23 -4 151 -8 284 -8 179 -1 245 -4 254 -13 10 -11 -80 -13 -453 -13 -459 0 -466 0 -492 21 -15 12 -30 19 -33 15 -4 -3 -1 -6 5 -6 19 0 13 -14 -13 -33 -23 -17 -25 -17 -35 2 -13 26 -3 51 21 51 11 0 22 7 25 15 4 8 11 12 16 9 6 -4 6 -9 -2 -14z m1542 10 c-32 -13 -166 -20 -182 -10 -9 5 21 9 74 9 48 -1 90 2 93 5 4 3 13 6 22 5 10 0 8 -4 -7 -9z m-727 -10 c-4 -6 -17 -9 -30 -7 -40 5 -41 17 -1 17 23 0 35 -4 31 -10z m-580 -71 l200 -5 -203 -1 c-112 -1 -206 -4 -210 -7 -3 -3 -14 -6 -24 -6 -23 0 -24 -16 -1 -24 9 -4 84 -7 167 -7 83 0 239 -1 346 -2 107 -1 213 1 235 4 30 5 33 7 13 8 -16 0 -28 4 -28 9 0 9 87 9 96 -1 4 -4 -4 -7 -17 -7 -18 0 -20 -3 -10 -9 11 -7 10 -10 -5 -14 -16 -4 -16 -5 4 -6 12 0 22 4 22 9 0 6 95 10 266 10 146 0 263 -4 260 -8 -2 -4 7 -9 22 -10 19 -1 23 1 13 7 -7 5 90 9 230 9 462 0 564 2 579 11 12 9 12 11 -3 17 -10 4 -23 2 -30 -5 -13 -13 -44 -15 -51 -2 -4 5 5 8 19 6 14 -1 25 3 25 9 0 8 -60 11 -202 10 l-203 0 200 5 c110 3 207 8 215 11 8 3 14 0 13 -7 -2 -7 3 -10 11 -7 7 3 18 -1 25 -9 12 -15 5 -47 -10 -47 -5 0 -9 -7 -9 -15 0 -13 -134 -15 -1100 -15 -929 0 -1100 2 -1100 14 0 8 -7 17 -16 20 -9 4 -14 15 -12 28 2 17 9 22 25 21 13 -2 22 1 22 5 -3 17 2 23 14 15 6 -4 102 -11 212 -14z m742 -6 c-7 -7 -129 -4 -136 3 -2 2 29 4 69 4 40 0 70 -3 67 -7z m731 0 c-21 -2 -55 -2 -75 0 -21 2 -4 4 37 4 41 0 58 -2 38 -4z m802 -133 c0 -29 -4 -40 -15 -40 -8 0 -15 9 -15 20 0 11 5 20 10 20 6 0 10 9 10 20 0 11 2 20 5 20 3 0 5 -18 5 -40z m-2634 -432 c-3 -233 -6 -525 -7 -651 0 -210 -7 -265 -23 -186 -3 17 -4 34 -2 38 7 11 15 457 16 854 1 262 4 367 12 367 8 0 9 -115 4 -422z m2440 45 c5 -474 12 -842 17 -851 5 -8 -12 -76 -18 -71 -7 8 -17 1304 -10 1297 4 -3 9 -172 11 -375z m74 84 c0 -13 4 -27 10 -32 5 -6 0 -10 -15 -10 -26 0 -35 27 -15 40 6 4 8 11 5 16 -4 5 -1 9 4 9 6 0 11 -10 11 -23z m-2575 -17 c0 -7 -10 -16 -21 -21 -20 -7 -20 -5 -10 17 11 25 31 27 31 4z m2551 -1050 c-1 -32 -13 -40 -22 -15 -4 8 -1 22 6 30 17 20 17 20 16 -15z m-2497 -197 c1 -115 4 -405 7 -645 5 -319 4 -438 -4 -438 -8 0 -11 106 -12 373 0 367 -9 836 -15 847 -5 10 7 70 16 70 4 0 8 -93 8 -207z m2459 179 c4 -23 4 -6 -2 -267 -4 -126 -7 -402 -9 -612 -1 -218 -6 -383 -11 -383 -9 0 1 1207 10 1222 3 4 1 8 -4 8 -5 0 -7 14 -4 30 5 32 13 33 20 2z m-2513 -22 c3 -5 1 -10 -5 -10 -8 0 -10 -9 -6 -25 6 -22 3 -25 -19 -25 -17 0 -24 4 -19 11 5 8 -1 10 -20 7 -25 -5 -26 -4 -13 16 9 13 23 20 36 18 11 -2 21 2 21 7 0 14 17 14 25 1z m2694 -1257 c-1 -30 -4 -37 -6 -20 -2 15 -9 27 -14 27 -5 0 -9 9 -9 20 0 11 7 20 15 20 11 0 15 -11 14 -47z m-1131 -80 c-1 -5 3 -18 10 -30 12 -22 12 -22 -12 -12 -25 12 -29 28 -11 41 13 10 16 10 13 1z m-153 -33 c-3 -5 23 -11 57 -13 l63 -3 -74 -2 c-60 -2 -71 0 -62 11 6 8 7 18 3 22 -4 5 -1 5 6 1 7 -4 10 -11 7 -16z m-250 -10 c4 -6 -20 -9 -67 -8 l-73 1 65 7 c36 4 66 7 67 8 1 1 5 -2 8 -8z m138 4 c3 -4 -1 -14 -10 -23 -12 -11 -17 -13 -21 -3 -5 17 -19 15 -19 -3 0 -8 5 -15 11 -15 6 0 -4 -9 -22 -20 -29 -18 -31 -23 -21 -41 8 -15 8 -19 0 -15 -6 4 -11 3 -11 -2 0 -5 -9 -12 -20 -15 -11 -3 -20 -10 -20 -16 0 -6 7 -8 15 -5 9 4 15 0 15 -10 0 -10 6 -13 15 -9 9 3 14 13 13 22 -5 19 28 51 52 51 10 0 23 -7 30 -15 7 -8 16 -12 21 -9 5 3 9 0 9 -5 0 -6 -5 -11 -10 -11 -7 0 -7 -6 0 -20 12 -22 14 -21 -70 -26 -25 -1 -63 -4 -85 -7 -39 -5 -73 6 -86 26 -8 12 -31 -1 -24 -14 4 -5 -1 -9 -10 -9 -10 0 -13 -5 -9 -12 5 -9 2 -9 -9 1 -20 16 -22 37 -5 47 8 5 9 0 6 -14 -4 -12 -2 -20 3 -16 5 3 8 17 6 32 -1 15 3 28 8 30 6 1 10 -2 10 -8 0 -10 63 -60 76 -60 14 0 -4 41 -22 51 -11 5 -19 6 -19 2 0 -4 -5 -2 -12 5 -9 9 -7 16 7 32 18 20 41 28 30 10 -3 -5 1 -10 9 -10 8 0 19 -8 25 -17 8 -14 12 -15 25 -4 9 7 16 21 16 30 0 9 5 22 11 28 7 7 4 12 -11 16 -16 4 -24 -1 -32 -19 -6 -13 -15 -24 -20 -24 -5 0 -2 14 7 30 9 17 22 30 30 30 8 0 14 6 13 13 -2 7 8 12 24 12 15 1 30 4 34 8 9 9 38 9 47 1z m56 -8 c11 -7 11 -10 0 -17 -10 -6 -8 -9 9 -9 15 0 26 -9 33 -26 5 -15 7 -29 5 -32 -3 -3 -10 7 -15 21 -7 19 -15 24 -30 20 -21 -5 -29 -23 -11 -23 6 0 10 -8 10 -18 0 -19 18 -42 32 -42 4 0 8 7 8 15 0 8 9 15 21 15 11 0 17 5 14 10 -11 18 12 10 30 -10 14 -16 16 -23 7 -32 -9 -9 -12 -8 -12 4 0 9 -5 20 -12 24 -7 5 -9 2 -5 -9 3 -8 0 -21 -8 -27 -15 -13 -27 -50 -15 -50 5 0 25 16 46 35 46 43 57 44 50 3 -4 -22 -3 -27 2 -14 8 19 9 19 16 1 4 -12 1 -24 -11 -34 -10 -9 -15 -12 -11 -7 4 4 -2 17 -12 28 l-19 20 -25 -20 c-22 -17 -57 -22 -96 -13 -3 1 -5 12 -5 25 0 16 4 21 10 15 14 -14 25 -11 19 6 -4 8 -12 15 -19 15 -7 0 -18 13 -23 29 -6 17 -20 36 -31 42 -19 12 -19 15 -4 40 16 27 27 30 52 15z m-826 -3 c-51 -2 -136 -2 -190 0 -54 1 -12 3 92 3 105 0 149 -2 98 -3z m1365 0 c-21 -2 -55 -2 -75 0 -21 2 -4 4 37 4 41 0 58 -2 38 -4z m315 0 c-51 -2 -135 -2 -185 0 -51 1 -10 3 92 3 102 0 143 -2 93 -3z m-2273 -63 l25 0 -29 -15 c-21 -11 -31 -12 -36 -4 -5 8 -10 8 -14 1 -11 -18 33 -36 51 -21 19 17 41 20 49 7 3 -5 14 -2 25 8 10 9 19 12 19 6 0 -6 -5 -14 -10 -17 -6 -4 -17 -22 -25 -41 -16 -39 -47 -44 -53 -9 -2 15 -1 16 6 7 8 -11 10 -11 15 1 4 11 -4 15 -36 15 -25 1 -36 -2 -28 -7 10 -6 9 -10 -3 -14 -9 -4 -13 -13 -10 -22 3 -8 10 -12 15 -9 5 3 7 10 4 15 -4 5 -2 9 4 9 6 0 15 -9 21 -20 9 -17 8 -20 -14 -20 -13 0 -31 3 -40 6 -18 7 -22 44 -5 44 8 0 8 4 1 13 -25 30 6 103 32 77 6 -6 21 -10 36 -10z m618 7 c10 5 13 2 8 -6 -5 -7 -16 -11 -26 -8 -12 3 -17 0 -14 -8 3 -7 -3 -15 -13 -18 -10 -2 -27 -8 -38 -12 -16 -5 -17 -5 -5 4 13 9 13 11 -2 11 -10 0 -18 -7 -18 -15 0 -13 34 -14 253 -11 138 2 267 7 285 11 33 8 45 -6 20 -22 -17 -10 -638 -12 -638 -1 0 4 13 8 30 8 29 0 57 29 42 45 -4 5 -1 5 6 1 6 -4 12 -2 12 3 0 6 5 11 11 11 5 0 7 -4 4 -10 -3 -5 3 -10 14 -10 11 0 22 9 26 21 5 14 10 18 17 11 6 -6 17 -8 26 -5z m1405 -14 c4 -3 0 -15 -9 -25 -12 -13 -21 -15 -30 -7 -9 7 -14 6 -20 -2 -4 -8 -3 -9 4 -5 7 4 12 2 12 -3 0 -7 35 -11 95 -11 78 0 95 3 95 15 0 8 -7 15 -16 15 -8 0 -13 -4 -10 -9 4 -5 -7 -4 -24 2 -31 12 -37 21 -20 32 6 3 10 1 10 -4 0 -6 10 -11 23 -11 18 0 19 2 7 10 -9 6 -10 10 -3 10 6 0 15 -5 18 -10 4 -6 11 -8 16 -4 5 3 9 2 8 -3 -6 -32 3 -43 32 -43 26 0 29 3 20 14 -9 11 -9 15 1 19 7 3 1 6 -14 6 -16 1 -28 5 -28 10 0 14 43 0 63 -21 10 -10 23 -15 29 -12 7 5 8 2 3 -6 -6 -10 -4 -12 8 -7 11 4 17 1 17 -8 0 -18 -21 -20 -38 -3 -9 9 -15 10 -20 2 -5 -7 -111 -10 -325 -10 -302 1 -319 2 -329 20 -10 18 -8 19 28 11 22 -4 100 -8 174 -9 125 -1 136 1 161 21 20 17 29 20 39 10 10 -10 12 -8 7 6 -6 17 3 23 16 10z m-1661 -38 c-10 -8 -31 -17 -45 -20 -15 -4 -27 -11 -27 -17 0 -20 -25 -34 -53 -30 -16 3 -27 1 -24 -4 10 -17 -89 -16 -103 1 -11 13 -8 15 18 15 17 0 33 4 37 9 3 5 21 8 40 5 18 -2 37 1 40 6 4 6 10 8 15 5 5 -3 15 3 22 15 7 11 22 20 33 20 11 0 27 4 35 9 22 15 34 1 12 -14z m1997 5 c12 0 21 -4 21 -9 0 -11 70 -45 77 -37 3 3 -2 8 -11 12 -20 8 -21 31 -2 31 8 0 19 -11 25 -25 7 -15 17 -22 26 -18 8 3 17 1 20 -4 4 -6 21 -10 38 -10 31 -1 31 -1 12 -16 -21 -16 -107 -16 -97 0 3 5 -11 7 -33 3 -20 -3 -35 -4 -32 -1 8 9 -28 41 -67 59 -20 10 -36 21 -36 26 0 6 8 5 19 -1 11 -5 29 -10 40 -10z m-1913 -5 c-11 -8 -25 -15 -32 -15 -7 0 -14 -5 -16 -11 -2 -6 -13 -10 -23 -7 -16 3 -12 8 20 25 47 26 81 31 51 8z m-318 -17 c-4 -27 -33 -36 -42 -13 -8 22 1 35 25 35 15 0 20 -6 17 -22z m122 13 c0 -12 -29 -35 -36 -28 -11 10 5 37 21 37 8 0 15 -4 15 -9z m2339 -5 c9 -10 8 -16 -4 -26 -13 -11 -19 -11 -32 2 -16 17 -10 38 11 38 8 0 19 -6 25 -14z m-1646 -43 c64 -9 117 -21 117 -25 0 -11 -2 -10 -93 7 -103 20 -361 20 -491 0 -124 -19 -140 -19 -133 -1 4 10 0 12 -14 9 -10 -3 -19 -1 -19 4 0 13 32 13 47 0 9 -6 47 -5 110 2 54 6 112 13 128 15 85 9 243 4 348 -11z m1276 -4 c64 -10 88 -10 102 -1 23 15 52 16 44 1 -4 -6 -14 -8 -22 -5 -11 4 -13 2 -9 -9 7 -19 -4 -19 -130 0 -55 8 -167 15 -254 15 -141 0 -201 -5 -297 -26 -20 -4 -33 -2 -33 3 0 6 44 17 98 26 111 18 362 16 501 -4z m-2134 -8 c9 -15 -27 -30 -50 -20 -17 6 -17 8 -2 8 9 1 17 6 17 11 0 13 27 13 35 1z m2549 -5 c26 -13 26 -14 4 -19 -23 -7 -51 9 -42 24 7 12 7 12 38 -5z"/>
<path d="M1470 3363 c0 -19 6 -23 30 -23 23 0 30 4 30 20 0 18 -2 19 -20 8 -17 -11 -22 -10 -30 2 -8 12 -10 11 -10 -7z"/>
<path d="M1470 139 c0 -18 2 -19 15 -9 12 10 18 10 30 0 13 -10 15 -9 15 9 0 17 -6 21 -30 21 -24 0 -30 -4 -30 -21z"/>
<path d="M121 3197 c-1 -16 5 -30 14 -33 8 -4 12 -11 8 -17 -4 -6 -1 -7 7 -2 7 4 16 2 21 -6 6 -9 9 -10 9 -2 0 6 -8 18 -18 25 -9 7 -23 24 -29 38 l-12 25 0 -28z"/>
<path d="M410 3065 c0 -4 7 -14 16 -22 8 -9 13 -24 11 -35 -7 -25 11 -88 25 -88 7 0 7 -4 -1 -13 -6 -8 -8 -17 -4 -20 6 -7 -10 -11 -33 -8 -6 1 -11 -6 -11 -14 0 -8 2 -13 5 -10 2 2 11 -3 19 -11 11 -11 12 -18 4 -28 -13 -16 -11 -37 4 -48 6 -4 -2 -8 -17 -8 -16 0 -28 -3 -29 -7 0 -5 -3 -33 -5 -63 -3 -30 -6 -66 -7 -79 -1 -13 4 -26 12 -29 8 -3 11 0 7 7 -4 6 -2 11 5 11 9 0 9 3 0 14 -18 22 7 135 28 129 23 -6 27 -130 6 -180 -12 -29 -13 -43 -5 -69 6 -18 10 -59 9 -91 -1 -32 0 -65 3 -73 3 -8 3 -12 1 -7 -3 4 -9 7 -14 7 -6 0 -7 -4 -4 -10 10 -16 -1 -11 -16 7 -12 14 -12 15 0 9 13 -8 13 1 -1 99 -1 6 -7 16 -14 22 -10 10 -12 -11 -11 -100 1 -84 4 -105 11 -84 10 28 22 33 43 19 19 -12 4 -55 -18 -49 -12 3 -16 0 -12 -9 3 -8 15 -17 28 -20 20 -5 21 -8 11 -30 -6 -13 -18 -24 -26 -24 -13 0 -13 -2 -1 -9 10 -7 15 -34 16 -99 0 -50 -2 -89 -6 -86 -4 2 -9 -5 -12 -16 -3 -13 0 -20 9 -20 21 0 17 -18 -6 -25 -12 -4 -27 -2 -35 5 -9 8 -15 8 -20 0 -4 -6 -1 -9 7 -8 7 2 12 -3 10 -10 -1 -8 6 -11 24 -8 19 4 24 1 21 -8 -3 -8 -1 -18 5 -24 13 -13 20 -65 8 -57 -12 8 -18 -67 -7 -93 8 -18 8 -25 -2 -32 -9 -5 -9 -9 -2 -11 6 -2 8 -14 4 -27 -4 -19 -11 -22 -29 -18 -13 4 -24 2 -24 -3 0 -5 13 -12 30 -16 30 -7 42 -25 16 -25 -9 0 -12 -7 -9 -20 3 -11 9 -20 13 -20 4 0 6 -39 5 -86 -1 -62 -5 -88 -16 -95 -11 -7 -11 -9 4 -9 20 0 23 -20 5 -38 -7 -7 -8 -12 -3 -12 4 0 -5 -11 -20 -24 -25 -22 -27 -28 -17 -48 l11 -23 -2 24 c-1 16 5 28 19 36 11 5 20 18 18 28 -3 21 12 32 22 16 3 -6 1 -15 -6 -19 -6 -4 -11 -10 -11 -14 3 -27 -15 -65 -33 -74 -20 -9 -22 -18 -24 -86 -1 -66 1 -75 13 -63 19 19 32 117 16 117 -7 0 -9 5 -6 10 4 6 11 7 17 4 6 -4 14 0 19 7 7 12 9 11 9 -1 0 -8 -4 -22 -9 -30 -6 -8 -7 -19 -4 -24 9 -14 3 -107 -8 -129 -7 -13 -6 -31 6 -60 19 -51 17 -177 -2 -177 -17 0 -17 -17 0 -23 9 -4 9 -6 0 -6 -15 -1 -19 6 -27 52 -6 31 -4 37 11 38 14 0 13 2 -5 9 -21 9 -22 13 -16 81 5 54 3 70 -6 64 -6 -4 -9 -17 -6 -30 3 -13 1 -27 -5 -31 -7 -4 -8 -19 -3 -43 4 -20 9 -56 11 -81 4 -65 5 -70 15 -64 4 3 16 0 25 -5 10 -6 12 -11 6 -11 -17 0 -17 -27 0 -33 9 -3 9 -7 -2 -20 -7 -10 -10 -17 -5 -17 4 0 -1 -7 -12 -15 -18 -14 -17 -15 8 -5 18 6 29 6 33 0 4 -6 0 -10 -8 -10 -17 0 -30 -27 -17 -35 5 -3 5 -18 0 -36 -6 -20 -6 -39 1 -50 5 -11 6 -19 2 -19 -5 0 -14 -9 -21 -21 -12 -19 -11 -19 8 -9 12 6 24 19 28 28 6 18 27 42 36 42 13 0 5 -28 -9 -34 -8 -3 -15 -11 -15 -17 0 -12 39 -9 73 6 13 6 16 4 11 -9 -5 -14 -2 -15 17 -8 13 4 48 8 77 8 28 -1 52 2 52 7 0 10 34 9 46 -3 11 -11 54 -2 54 12 0 6 11 3 25 -6 14 -9 25 -12 25 -8 0 5 63 7 140 5 101 -2 140 0 140 8 0 7 4 8 13 2 6 -5 23 -8 37 -6 14 2 68 5 122 7 53 2 101 6 106 10 5 3 13 -1 16 -10 5 -12 10 -14 19 -5 15 12 355 9 376 -3 6 -4 18 -2 26 4 11 9 19 9 28 1 10 -8 17 -7 27 2 10 9 11 9 6 0 -5 -9 8 -12 53 -12 33 1 65 -2 72 -6 8 -5 10 -4 5 3 -5 8 9 10 50 7 31 -2 59 -6 62 -9 2 -3 18 4 33 15 20 14 27 16 23 6 -7 -20 21 -29 51 -15 18 8 28 8 39 -1 8 -7 19 -10 25 -7 5 3 36 2 69 -2 48 -7 59 -6 55 5 -6 16 -5 16 46 -2 42 -15 52 -8 26 19 -15 14 -20 36 -9 36 9 0 34 -28 34 -38 0 -5 7 -15 15 -22 12 -10 15 -10 15 3 0 8 -6 17 -12 20 -10 3 -10 8 1 21 12 14 12 19 2 25 -7 5 -12 12 -11 17 1 4 -7 12 -17 16 -12 6 -9 7 10 3 27 -5 27 -5 10 15 -23 27 -23 42 0 58 14 11 15 17 6 28 -9 11 -9 17 0 28 9 11 9 16 0 22 -8 5 -3 12 15 21 31 16 28 4 31 136 1 63 -2 107 -7 107 -6 0 -8 -18 -6 -40 2 -22 -1 -40 -5 -40 -5 0 -4 -7 3 -15 16 -19 5 -49 -15 -41 -8 3 -15 1 -15 -4 0 -6 5 -10 11 -10 17 0 7 -83 -11 -87 -12 -4 -13 -3 -1 5 17 12 5 33 -15 25 -12 -4 -13 -1 -5 19 5 14 5 43 1 69 -6 30 -5 46 3 51 7 4 9 8 4 8 -4 0 -1 14 8 30 11 22 13 35 5 49 -12 24 -21 210 -8 187 5 -9 16 -13 26 -10 13 5 14 4 3 -4 -17 -12 -8 -99 13 -120 13 -13 14 -6 11 61 -4 84 -10 101 -31 93 -16 -6 -29 11 -29 41 -1 19 3 21 25 16 24 -5 24 -5 5 10 -11 9 -26 17 -32 17 -27 0 -3 60 25 61 14 0 14 2 -3 9 -11 5 -16 9 -11 9 5 1 3 7 -3 15 -7 9 -8 17 -2 20 10 6 7 68 -4 86 -4 6 -2 16 3 23 5 7 13 27 17 44 6 29 4 32 -12 27 -16 -5 -16 -4 1 10 11 9 28 16 38 16 10 0 18 5 18 10 0 6 -11 8 -27 4 -21 -6 -25 -4 -20 9 3 9 1 18 -6 21 -9 3 -8 8 3 15 10 7 11 11 3 11 -7 0 -13 8 -13 18 0 10 6 24 13 31 10 11 9 14 -1 18 -9 4 -10 8 -2 18 8 9 8 15 0 20 -5 3 -10 17 -10 31 0 18 4 23 13 18 7 -5 6 0 -3 11 -11 13 -12 19 -3 22 7 2 9 11 6 20 -4 11 -2 14 5 9 22 -13 12 11 -10 27 l-23 16 23 0 22 1 -19 38 c-15 29 -17 47 -12 77 4 22 6 55 5 73 -1 17 2 32 8 32 5 0 6 5 3 10 -4 6 -11 8 -16 5 -15 -10 -10 3 15 44 14 22 31 41 37 43 9 3 10 11 4 24 -8 18 -9 18 -12 -4 -3 -12 -9 -20 -14 -17 -5 4 -9 1 -9 -4 0 -6 -6 -11 -14 -11 -9 0 -12 -8 -8 -26 3 -16 1 -25 -5 -21 -5 3 -9 23 -8 43 2 35 24 65 56 76 7 2 13 40 15 100 2 86 1 96 -14 91 -10 -4 -12 -8 -4 -11 15 -5 16 -39 2 -44 -6 -2 -13 -25 -15 -52 -3 -26 -11 -56 -18 -67 -11 -15 -13 -5 -9 69 2 48 9 95 14 105 6 12 3 31 -9 60 -10 23 -17 53 -16 67 2 14 4 44 4 68 0 24 3 41 6 38 4 -3 12 -1 20 5 10 9 13 4 13 -25 0 -20 -4 -36 -10 -36 -5 0 -10 -4 -10 -9 0 -5 8 -8 18 -7 15 1 17 -8 14 -73 -2 -46 0 -71 6 -67 8 5 10 185 3 229 0 4 -13 7 -28 7 -20 0 -24 3 -14 9 11 7 11 9 0 14 -12 5 -12 6 0 6 11 1 11 4 1 16 -7 9 -9 22 -5 32 5 10 7 22 6 26 -1 5 2 6 6 4 12 -7 48 21 39 30 -4 4 -10 3 -14 -3 -9 -14 -62 -24 -62 -13 0 5 6 9 14 9 19 0 25 21 12 42 -8 13 -8 23 0 36 7 11 8 26 3 40 -6 15 -5 21 1 17 6 -3 10 4 10 17 -1 22 -2 22 -25 -7 -14 -16 -25 -33 -25 -37 0 -5 -4 -8 -10 -8 -16 0 -12 27 5 34 24 9 17 23 -14 28 -17 2 -28 1 -26 -3 3 -4 -2 -10 -11 -13 -22 -8 -24 -8 -19 7 4 9 -7 11 -40 9 -25 -2 -45 -8 -45 -13 0 -5 -12 -4 -27 2 -19 7 -29 7 -31 0 -5 -14 -49 -14 -57 -1 -4 7 -13 7 -26 0 -11 -6 -17 -15 -14 -20 3 -5 -6 -3 -20 4 -26 14 -55 14 -89 0 -16 -6 -18 -4 -12 11 7 18 6 18 -13 1 -19 -17 -47 -14 -36 4 3 5 -7 5 -22 1 -16 -4 -41 -7 -58 -6 -16 1 -38 -2 -49 -7 -13 -7 -16 -7 -12 1 4 6 1 11 -8 11 -8 0 -17 -3 -19 -7 -3 -5 -48 -8 -101 -8 -53 0 -96 -2 -96 -5 0 -3 -9 -6 -20 -6 -14 0 -19 5 -15 15 4 10 2 11 -7 4 -7 -6 -57 -10 -111 -9 -53 0 -97 -3 -97 -7 0 -5 -4 -6 -10 -2 -13 8 -290 14 -290 6 0 -4 -8 -7 -19 -7 -12 0 -17 5 -13 14 4 11 -4 13 -37 8 -22 -3 -52 -1 -66 4 -14 5 -24 6 -24 2 3 -19 -3 -22 -21 -12 -13 7 -20 7 -20 1 0 -7 -8 -7 -23 -2 -12 5 -42 7 -65 4 -25 -3 -48 0 -56 7 -10 7 -16 8 -21 0 -8 -13 -52 -13 -60 0 -3 6 -15 6 -30 0 -13 -5 -27 -5 -30 -1 -2 5 -23 11 -45 13 -31 3 -39 0 -35 -10 4 -11 1 -12 -12 -6 -10 4 -34 9 -53 10 -20 0 -46 6 -58 13 -12 6 -22 9 -22 6z m1090 -76 c465 0 878 3 918 6 54 4 73 2 77 -7 7 -22 11 -1503 5 -2001 l-5 -479 -995 0 -995 0 -6 349 c-6 412 -1 2122 7 2134 3 5 38 7 77 4 40 -3 452 -6 917 -6z"/>
<path d="M531 2965 c13 -13 818 -22 1446 -15 301 3 486 9 492 15 7 7 -316 10 -969 10 -653 0 -976 -3 -969 -10z"/>
<path d="M675 543 c-77 -2 -143 -7 -147 -11 -4 -4 432 -7 967 -7 536 0 975 3 975 6 0 16 -1235 24 -1795 12z"/>
<path d="M177 2973 c-4 -3 -2 -12 4 -19 6 -8 9 -20 6 -28 -3 -8 0 -20 8 -26 18 -15 24 15 11 53 -11 27 -17 32 -29 20z"/>
<path d="M2791 2950 c-7 -17 -11 -39 -8 -49 2 -10 -1 -18 -7 -17 -22 2 -21 -19 2 -22 18 -3 22 1 22 25 0 15 6 40 14 55 13 24 12 38 -3 38 -3 0 -12 -14 -20 -30z"/>
<path d="M86 2915 c2 -27 8 -79 11 -115 5 -47 8 -59 15 -45 7 16 8 15 5 -7 -2 -15 0 -33 5 -40 5 -8 7 12 4 52 -3 36 -6 80 -7 98 -1 17 -6 32 -11 32 -6 0 -8 15 -4 38 4 24 3 30 -3 17 -8 -20 -8 -20 -14 0 -4 11 -4 -2 -1 -30z"/>
<path d="M2906 2935 c-4 -14 -11 -23 -17 -19 -7 4 -9 -10 -6 -40 2 -25 0 -46 -5 -46 -4 0 -8 -30 -8 -66 0 -42 4 -63 10 -59 6 4 8 15 5 25 -3 10 -2 27 4 37 5 10 14 56 20 102 11 84 9 116 -3 66z"/>
<path d="M122 2608 c-8 -8 -12 -61 -12 -172 0 -89 -5 -195 -11 -236 -25 -192 -26 -200 -12 -211 7 -7 13 -18 13 -26 0 -8 5 -11 11 -8 6 4 8 13 5 21 -3 8 1 17 9 20 8 4 15 10 15 15 0 4 -7 6 -15 3 -19 -8 -41 38 -30 63 5 10 7 22 6 26 0 4 3 16 8 25 5 10 12 69 16 132 4 63 9 118 12 123 2 4 -1 7 -6 7 -7 0 -11 33 -11 91 0 57 4 88 10 84 6 -3 10 1 10 9 0 9 -5 16 -11 16 -8 0 -8 5 1 15 15 18 9 20 -8 3z"/>
<path d="M2880 2553 c0 -27 -4 -43 -8 -36 -5 8 -8 -2 -9 -25 0 -29 1 -33 8 -17 7 15 8 9 6 -22 -1 -24 1 -43 5 -43 5 0 8 43 8 95 0 52 -2 95 -5 95 -3 0 -5 -21 -5 -47z"/>
<path d="M2865 2390 c-4 -6 -4 -27 -1 -48 3 -20 8 -73 11 -117 3 -44 13 -104 22 -134 16 -51 16 -54 -2 -67 -10 -7 -21 -11 -26 -9 -4 3 -10 1 -14 -5 -3 -5 1 -10 9 -10 9 0 16 -8 16 -18 0 -31 12 -33 27 -6 17 33 16 58 -2 180 -8 54 -15 132 -15 172 0 66 -9 88 -25 62z"/>
<path d="M388 2158 c-2 -7 -1 -29 3 -48 4 -23 7 -27 8 -12 1 16 5 21 14 16 8 -6 8 -3 -2 9 -7 9 -11 24 -7 32 3 8 1 15 -3 15 -5 0 -11 -6 -13 -12z"/>
<path d="M2596 2140 c2 -45 5 -48 14 -16 9 29 6 46 -8 46 -4 0 -6 -13 -6 -30z"/>
<path d="M374 2018 c-5 -7 -3 -8 5 -3 9 5 12 0 11 -16 -4 -42 0 -59 11 -59 7 0 9 9 5 24 -3 14 -1 26 5 28 14 5 0 38 -16 38 -8 0 -17 -5 -21 -12z"/>
<path d="M2589 2018 c-1 -7 0 -17 1 -23 2 -5 2 -20 2 -32 -1 -13 3 -23 8 -23 6 0 10 6 11 13 4 67 3 77 -8 77 -7 0 -14 -6 -14 -12z"/>
<path d="M2824 1873 c-17 -18 -18 -27 -1 -16 18 11 37 13 37 3 0 -13 -23 -25 -42 -22 -10 2 -18 -2 -18 -8 0 -6 8 -10 17 -8 11 2 22 -8 31 -24 15 -33 32 -35 55 -10 24 27 21 31 -18 28 -37 -3 -47 12 -21 33 11 9 15 9 19 -1 4 -8 6 -7 6 5 1 9 -6 17 -15 17 -8 0 -13 4 -10 8 9 14 -25 10 -40 -5z"/>
<path d="M370 1847 c0 -23 4 -36 10 -32 6 4 8 10 5 15 -3 4 1 10 7 13 10 3 8 9 -4 23 -17 18 -18 17 -18 -19z"/>
<path d="M110 1860 c0 -5 5 -9 12 -7 6 1 17 -9 24 -21 7 -14 14 -19 18 -13 9 14 34 3 47 -20 12 -23 -3 -25 -25 -3 -9 8 -16 11 -16 6 0 -5 9 -17 21 -28 17 -16 22 -16 29 -4 6 8 10 20 10 26 0 15 -48 47 -59 40 -5 -3 -16 3 -26 14 -20 22 -35 26 -35 10z"/>
<path d="M407 1812 c-22 -23 -25 -31 -14 -41 10 -11 9 -13 -3 -9 -10 4 -16 0 -16 -12 0 -10 6 -16 13 -13 7 3 13 1 13 -5 0 -6 -5 -12 -10 -14 -6 -2 -1 -11 10 -20 11 -10 20 -14 20 -8 0 5 -5 12 -10 15 -6 4 -5 12 4 20 15 16 10 55 -7 55 -6 0 2 14 18 30 16 17 24 30 19 30 -6 0 -22 -13 -37 -28z"/>
<path d="M80 1806 c1 -15 60 -72 60 -58 0 7 -5 12 -11 12 -8 0 -8 5 1 15 7 8 17 12 22 9 5 -3 4 3 -3 13 -13 21 -69 28 -69 9z"/>
<path d="M65 1760 c-3 -11 -2 -27 3 -36 8 -14 10 -11 14 15 5 36 -7 52 -17 21z"/>
<path d="M2905 1770 c-3 -5 -1 -10 6 -10 8 0 9 -3 0 -13 -10 -13 -6 -27 10 -27 11 0 19 28 13 45 -7 17 -20 20 -29 5z"/>
<path d="M2576 1761 c-8 -12 4 -41 16 -41 5 0 6 -4 3 -10 -3 -5 -2 -10 4 -10 16 0 22 18 9 23 -10 4 -9 8 2 16 13 10 13 12 0 21 -19 12 -27 12 -34 1z"/>
<path d="M98 1715 c-20 -26 -23 -45 -8 -45 6 0 10 5 10 11 0 6 8 8 19 4 14 -4 23 1 32 17 6 13 8 20 4 15 -5 -4 -15 -1 -24 7 -14 12 -18 11 -33 -9z"/>
<path d="M2863 1725 c-16 -9 -19 -15 -11 -28 6 -12 16 -16 29 -12 12 4 19 2 19 -6 0 -10 3 -10 11 -2 9 9 7 18 -7 35 -16 20 -23 22 -41 13z"/>
<path d="M371 1658 c-1 -29 2 -36 14 -32 8 4 15 13 15 21 0 8 -4 12 -9 8 -5 -3 -12 5 -14 17 -3 15 -5 9 -6 -14z"/>
<path d="M2800 1668 c0 -4 10 -8 23 -8 12 0 27 -8 34 -18 10 -17 8 -18 -13 -14 -13 2 -24 0 -24 -6 0 -6 -8 -13 -17 -15 -17 -4 -17 -5 -1 -6 11 -1 15 -6 12 -16 -7 -18 -34 -20 -34 -3 0 6 -2 9 -5 6 -13 -13 9 -39 28 -34 19 5 20 2 13 -101 -3 -58 -6 -234 -6 -390 l0 -283 -27 6 c-28 7 -28 7 -9 -14 16 -18 22 -20 34 -9 13 11 14 9 1 -10 -11 -18 -11 -27 -2 -42 10 -15 9 -19 -2 -17 -22 3 -25 8 -34 66 -1 2 -6 -1 -12 -7 -16 -16 27 -85 50 -81 24 5 29 90 31 504 l1 362 22 7 c12 4 25 7 29 6 3 0 5 11 3 24 -2 20 1 23 11 15 9 -8 14 -6 19 10 10 31 0 35 -31 11 -15 -12 -21 -21 -13 -21 9 -1 5 -8 -10 -20 -18 -16 -27 -18 -37 -9 -22 18 -16 31 9 24 22 -7 22 -7 2 9 -20 15 -20 15 1 16 21 0 44 17 44 33 0 4 -4 6 -9 2 -5 -3 -16 3 -23 13 -13 18 -58 25 -58 10z"/>
<path d="M100 1541 c0 -8 -7 -22 -15 -31 -9 -10 -13 -25 -9 -34 8 -20 23 -21 30 -2 3 8 12 12 20 9 8 -3 14 -1 14 5 0 5 -7 13 -16 16 -8 3 -13 9 -10 14 2 4 1 14 -5 22 -7 13 -9 13 -9 1z"/>
<path d="M388 1538 c-6 -17 3 -68 12 -68 13 0 21 33 10 40 -6 4 -8 14 -4 23 3 9 2 17 -4 17 -6 0 -12 -5 -14 -12z"/>
<path d="M2588 1522 c-5 -35 0 -52 16 -52 7 0 10 14 8 40 -5 46 -18 53 -24 12z"/>
<path d="M2880 1520 c0 -11 -7 -20 -16 -20 -8 0 -12 -5 -9 -10 4 -6 10 -8 14 -5 5 2 17 -5 27 -16 17 -19 17 -22 1 -67 -9 -26 -18 -81 -22 -122 -3 -41 -8 -99 -11 -127 -5 -45 -4 -53 10 -53 13 0 16 12 16 73 0 39 7 117 15 171 18 121 18 156 1 179 -17 22 -26 22 -26 -3z"/>
<path d="M81 1445 c0 -5 6 -59 14 -120 8 -60 15 -181 15 -267 0 -108 4 -159 12 -164 6 -4 8 -3 4 4 -3 5 0 13 6 16 10 5 10 7 1 12 -16 7 -18 170 -3 179 6 4 8 9 6 13 -2 4 -7 58 -11 121 -4 63 -11 122 -16 130 -5 9 -13 32 -18 51 -5 19 -10 31 -10 25z"/>
<path d="M388 1378 c-6 -35 -1 -58 11 -58 7 0 4 80 -3 87 -2 2 -6 -11 -8 -29z"/>
<path d="M2599 1398 c-7 -75 -6 -78 5 -69 7 6 10 26 8 46 -4 35 -11 47 -13 23z"/>
<path d="M2880 1031 c0 -17 -4 -33 -10 -36 -5 -3 -10 -12 -10 -18 0 -7 4 -6 10 3 7 11 10 2 10 -32 0 -27 -4 -48 -10 -48 -5 0 -10 -8 -10 -17 0 -15 2 -15 9 -4 7 11 10 9 13 -10 2 -13 5 24 6 84 1 59 0 107 -3 107 -3 0 -5 -13 -5 -29z"/>
<path d="M121 765 c-2 -30 -4 -35 -10 -20 -5 13 -10 -5 -15 -55 -3 -41 -9 -93 -11 -115 -2 -22 -2 -31 2 -20 6 20 6 20 14 0 6 -13 6 -6 2 19 -4 28 -3 37 6 32 6 -4 11 -1 11 9 0 10 -5 13 -12 9 -7 -5 -8 -3 -2 7 5 8 9 19 9 24 1 6 4 22 9 36 4 14 6 45 3 70 l-4 44 -2 -40z"/>
<path d="M2870 736 c0 -36 4 -66 9 -66 4 0 7 -21 5 -46 -3 -28 -1 -43 5 -39 6 3 15 -9 21 -27 9 -32 10 -31 5 10 -3 24 -8 70 -12 103 -3 32 -10 59 -15 59 -5 0 -7 13 -3 29 3 17 2 32 -4 36 -7 4 -11 -16 -11 -59z"/>
<path d="M202 662 c-17 -5 -15 -15 7 -41 11 -12 22 -18 25 -13 9 15 -17 59 -32 54z"/>
<path d="M2780 655 c0 -8 -8 -19 -17 -25 -17 -10 -17 -10 0 -20 9 -6 17 -17 17 -24 0 -28 25 -66 41 -60 10 3 17 -1 16 -8 0 -7 1 -22 1 -33 2 -17 5 -15 17 9 14 26 14 33 0 62 -8 18 -15 52 -15 76 -1 32 -3 39 -10 26 -12 -20 -9 -71 5 -80 6 -5 6 -8 -2 -8 -7 0 -13 -5 -13 -11 0 -5 5 -7 10 -4 6 3 10 1 10 -4 0 -6 -7 -11 -15 -11 -8 0 -15 9 -15 19 0 11 -7 26 -15 35 -18 17 -20 30 -3 20 7 -5 9 -2 5 8 -3 9 -1 20 4 25 7 7 5 12 -5 16 -10 4 -16 1 -16 -8z"/>
<path d="M187 594 c-3 -3 -3 -12 0 -20 3 -8 0 -21 -6 -28 -9 -10 -9 -16 -1 -21 6 -4 12 -5 13 -4 1 2 8 14 14 26 17 31 1 68 -20 47z"/>
<path d="M129 332 c-5 -13 -9 -33 -8 -45 0 -21 1 -21 12 3 6 14 21 35 33 46 l23 22 -26 -2 c-17 -1 -28 -9 -34 -24z"/>
<path d="M2833 336 c15 -13 24 -25 22 -28 -3 -3 1 -11 10 -18 13 -10 15 -9 15 7 0 11 -3 23 -7 27 -5 4 -8 12 -8 18 0 6 -13 12 -29 14 l-30 3 27 -23z"/>
</g>
</svg>