<svg version="1.0" xmlns="http://www.w3.org/2000/svg" preserveAspectRatio="xMidYMid meet" viewBox="83.25 92.05 137.37 135.45">
<metadata>
Created by potrace 1.10, written by Peter Selinger 2001-2011
</metadata>
<g transform="translate(0.000000,300.000000) scale(0.100000,-0.100000)" fill="#000000" stroke="none">
<path d="M1430 2070 c-8 -5 -24 -10 -34 -10 -11 0 -28 -8 -38 -17 -16 -15 -21 -15 -28 -3 -15 24 -23 -14 -17 -76 6 -58 -2 -67 -35 -37 -17 15 -18 13 -17 -48 1 -44 3 -55 8 -35 8 38 24 43 41 11 17 -32 34 -33 26 -1 -3 13 -2 35 3 48 9 22 10 22 16 -9 4 -18 13 -33 20 -33 7 0 15 -6 18 -14 4 -9 14 -12 26 -9 12 3 21 1 21 -5 0 -14 -28 -23 -36 -11 -7 13 -46 1 -60 -19 -15 -21 -44 -8 -44 20 -1 21 -1 22 -11 5 -7 -11 -8 -37 -4 -65 5 -37 16 -55 46 -84 22 -21 47 -38 55 -38 9 0 25 -10 36 -22 l20 -23 -19 32 c-10 17 -35 51 -57 74 l-38 43 22 18 c30 24 40 23 40 -6 0 -33 17 -77 36 -91 20 -14 31 -90 15 -100 -7 -4 -20 0 -29 8 -9 9 -29 19 -44 22 -16 4 -28 11 -28 15 0 18 -85 70 -115 70 -30 0 -55 15 -55 32 0 4 7 8 15 8 8 0 15 9 15 21 0 11 -4 17 -10 14 -12 -7 -36 42 -26 52 4 4 10 2 15 -5 4 -6 7 4 7 23 0 34 -1 34 -12 13 -15 -27 -78 -35 -111 -13 -27 18 -39 19 -25 3 5 -7 17 -35 25 -63 9 -28 16 -40 16 -27 1 12 5 22 10 22 5 0 9 -42 8 -94 -1 -52 1 -92 6 -89 4 2 7 17 7 32 0 21 6 30 23 35 45 12 57 7 57 -21 l0 -28 18 21 c16 20 20 20 50 8 17 -8 32 -19 32 -24 0 -6 7 -10 15 -10 8 0 15 -4 15 -10 0 -13 -34 -30 -60 -30 -19 0 -21 4 -15 28 5 22 4 25 -6 15 -7 -7 -19 -13 -27 -13 -17 0 -72 -50 -72 -66 0 -5 -13 -23 -29 -38 -25 -24 -29 -25 -35 -10 -4 11 3 25 19 40 14 13 25 28 25 34 0 6 6 8 13 4 9 -5 9 -4 0 6 -9 10 -18 7 -45 -12 -18 -14 -41 -28 -52 -32 -18 -6 -18 -7 -1 -26 9 -10 14 -24 10 -29 -4 -7 8 -11 32 -11 21 0 72 -5 115 -12 90 -14 87 -8 90 -182 l1 -111 7 125 c8 136 15 170 34 170 18 0 36 -43 29 -69 -3 -12 -1 -21 6 -21 6 0 11 -9 11 -20 0 -11 -7 -20 -15 -20 -8 0 -15 7 -15 15 0 27 -17 15 -24 -16 -11 -55 -6 -143 11 -184 9 -22 15 -56 15 -75 -3 -99 0 -179 8 -210 7 -30 8 -23 11 45 2 44 2 93 2 109 -1 16 2 24 6 18 14 -23 33 77 27 136 -5 40 -4 53 3 42 6 -8 11 -26 11 -40 0 -14 7 -47 16 -75 12 -37 16 -86 15 -192 -1 -87 3 -143 9 -143 5 0 7 6 5 13 -2 6 -1 93 4 192 6 142 9 175 18 155 9 -22 11 -18 18 41 5 51 3 75 -8 100 -15 31 -19 95 -16 254 2 102 -18 226 -32 203 -7 -10 -9 -10 -9 0 0 7 11 24 25 37 26 27 12 35 -27 14 -11 -6 -18 -7 -16 -2 50 102 50 98 38 200 -9 82 -8 98 5 113 8 9 15 20 15 23 0 10 -23 8 -40 -3z m-36 -66 c6 -16 -9 -54 -22 -54 -23 0 -30 24 -14 46 20 28 28 29 36 8z m40 -81 c1 -43 0 -70 -2 -60 -3 15 -7 16 -18 6 -19 -15 -25 -9 -17 20 4 17 8 20 15 9 6 -9 8 -4 7 17 -3 49 1 99 7 92 3 -3 7 -41 8 -84z m-298 -209 c5 -26 2 -40 -10 -52 -15 -15 -16 -12 -16 41 0 64 15 69 26 11z m237 -206 c15 -32 16 -32 23 -10 3 12 10 22 14 22 9 0 25 -39 18 -44 -23 -20 -44 -21 -83 -7 -39 14 -44 14 -60 -3 -15 -14 -27 -16 -69 -11 -62 8 -70 15 -51 41 13 17 14 17 15 2 0 -10 4 -18 9 -18 5 0 16 -3 24 -6 9 -3 16 3 20 15 4 16 11 19 35 16 41 -5 72 4 72 21 0 24 16 15 33 -18z m74 -80 c1 -18 4 -77 8 -131 l6 -98 -32 14 c-41 16 -53 43 -16 33 26 -6 46 7 27 19 -5 3 -10 21 -10 39 0 19 -3 49 -7 67 -8 34 -8 34 -14 -16 l-6 -50 1 57 c2 51 11 73 42 97 0 1 1 -14 1 -31z m-71 -265 c-7 -7 -35 9 -40 23 -3 8 0 26 6 40 12 25 12 25 24 -17 7 -24 12 -45 10 -46z"/>
<path d="M1577 2074 c-4 -4 0 -16 10 -26 14 -16 15 -28 5 -108 -6 -50 -9 -99 -6 -108 11 -33 39 -82 47 -82 4 0 5 -5 2 -10 -4 -7 -12 -7 -25 0 -29 15 -48 12 -26 -5 17 -13 18 -19 7 -57 -7 -24 -12 -59 -12 -78 0 -19 -5 -56 -11 -82 -9 -35 -9 -50 0 -61 16 -19 6 -177 -14 -229 -9 -26 -12 -57 -7 -99 5 -55 7 -59 18 -39 l12 22 6 -21 c3 -12 3 -54 1 -94 -3 -40 -1 -117 4 -172 l9 -100 2 138 c1 126 12 204 41 302 7 22 8 15 4 -30 -3 -36 -1 -72 7 -90 22 -55 38 -149 33 -200 -3 -37 -1 -44 5 -25 5 14 9 56 10 93 1 43 5 66 11 62 13 -8 13 -4 -4 36 -12 30 -12 39 0 68 24 57 35 160 22 210 -10 38 -13 42 -23 27 -17 -22 -35 -20 -35 4 0 11 5 20 10 20 6 0 10 15 10 33 1 74 43 76 54 1 3 -26 6 -90 6 -142 0 -52 3 -93 6 -89 4 3 6 50 5 104 0 54 3 114 7 133 9 39 20 43 165 56 53 5 67 10 67 23 0 10 5 22 12 29 9 9 7 13 -8 18 -10 4 -34 19 -51 32 -40 29 -43 15 -7 -27 17 -20 24 -37 19 -49 -7 -18 -6 -18 -88 83 -16 19 -37 35 -46 35 -9 0 -22 5 -29 12 -7 7 -12 8 -12 2 0 -6 5 -15 12 -22 16 -16 -17 -28 -50 -16 -29 10 -42 34 -19 34 9 0 17 5 19 11 2 5 22 18 44 28 40 18 40 18 40 -2 -1 -11 5 -22 12 -24 9 -4 11 2 6 21 -5 21 -3 26 12 26 46 0 64 -12 64 -41 0 -15 5 -31 11 -35 9 -5 10 1 5 21 -9 37 5 180 14 145 l7 -25 7 30 c4 17 14 45 21 63 15 34 7 43 -15 16 -9 -10 -26 -14 -49 -12 -30 3 -37 -1 -49 -24 -7 -16 -17 -28 -23 -28 -5 0 -9 -6 -9 -14 0 -8 -5 -18 -11 -22 -11 -7 -7 39 7 89 4 12 -1 17 -18 18 -15 1 -17 3 -7 6 10 2 20 19 24 41 3 20 8 45 11 55 3 9 1 17 -3 17 -15 0 -51 -73 -63 -125 -6 -28 -13 -59 -16 -70 -4 -13 -3 -17 4 -10 5 6 13 19 16 30 3 11 3 -2 0 -29 -6 -53 -11 -51 56 -30 14 4 20 2 20 -9 0 -17 -21 -27 -57 -27 -25 0 -90 -41 -106 -66 -4 -7 -20 -15 -36 -19 -16 -3 -35 -13 -42 -21 -16 -19 -27 -18 -34 6 -9 27 14 95 27 82 6 -6 6 -17 -1 -31 -8 -14 -8 -21 -1 -21 5 0 10 7 10 15 0 8 9 15 20 15 33 0 97 65 106 108 9 43 7 63 -8 77 -7 7 -9 6 -5 -1 4 -6 -2 -19 -11 -28 -17 -15 -20 -14 -40 9 -12 14 -26 25 -32 25 -19 0 -10 28 10 33 11 3 20 9 19 14 -3 19 2 33 12 33 8 0 10 -14 6 -40 -6 -46 3 -51 27 -15 21 31 35 24 38 -18 1 -18 4 -5 7 28 8 73 5 81 -20 59 -27 -24 -39 -8 -30 41 10 55 4 74 -20 68 -10 -3 -19 0 -19 5 0 6 -18 16 -41 22 -22 6 -46 13 -53 16 -6 2 -15 1 -19 -2z m109 -71 c18 -24 17 -40 -3 -47 -19 -8 -33 9 -33 42 0 26 18 29 36 5z m-60 -83 c-2 -19 -2 -29 1 -22 8 20 18 14 21 -13 1 -14 -2 -25 -6 -25 -23 1 -30 21 -30 85 0 58 2 65 10 40 5 -16 7 -46 4 -65z m75 -167 c8 -8 8 -16 -2 -28 -57 -70 -82 -81 -60 -27 7 16 13 38 14 50 1 23 28 25 48 5z m229 -43 c0 -49 -13 -68 -22 -32 -5 18 9 82 17 82 3 0 5 -22 5 -50z m-230 -185 c0 -8 8 -16 18 -17 32 -2 37 -4 51 -12 11 -7 13 -5 8 6 -4 12 -1 14 14 11 10 -3 19 -11 19 -19 0 -30 50 -26 50 5 1 14 3 13 15 -3 20 -26 13 -32 -41 -40 -34 -4 -54 -2 -70 9 -29 19 -42 19 -78 0 -26 -14 -31 -14 -52 0 -27 17 -26 17 -18 39 8 20 24 21 24 2 0 -29 21 -27 31 3 11 32 29 42 29 16z m-90 -90 c12 8 26 -22 34 -72 3 -24 2 -44 -4 -48 -6 -4 -10 12 -10 41 0 64 -9 51 -15 -21 -3 -32 -9 -63 -15 -70 -14 -16 -1 -26 25 -19 13 3 26 1 29 -5 4 -6 5 -11 3 -11 -3 0 -21 -7 -41 -15 l-37 -16 7 93 c4 51 7 111 7 133 0 22 2 32 4 22 3 -9 8 -15 13 -12z m95 -227 c5 -21 2 -29 -16 -38 -21 -12 -22 -11 -15 20 3 18 6 40 6 48 0 23 17 3 25 -30z"/>
<path d="M998 2008 c7 -7 12 -20 12 -30 0 -10 7 -18 15 -18 19 0 19 -14 1 -29 -9 -7 -29 -9 -55 -5 -34 5 -42 4 -48 -12 -12 -34 -43 -46 -43 -16 -1 15 -2 15 -15 -2 -14 -19 -21 -106 -9 -106 3 0 15 11 26 25 49 62 64 16 60 -187 -1 -81 1 -149 5 -151 5 -3 9 37 11 89 2 67 10 117 27 172 14 42 25 85 25 95 0 20 42 23 86 7 42 -16 51 2 23 47 -27 44 -109 133 -123 133 -6 0 -5 -5 2 -12z m-18 -129 c0 -10 -33 -12 -43 -3 -3 3 0 12 6 19 12 13 37 2 37 -16z m96 16 c14 -13 13 -16 -8 -24 -29 -11 -45 2 -27 23 17 19 17 19 35 1z m-82 -72 c-4 -16 -13 -46 -20 -68 l-13 -40 5 45 c8 69 13 90 24 90 6 0 8 -11 4 -27z"/>
<path d="M1988 1971 c-27 -27 -48 -56 -48 -64 0 -8 -7 -17 -15 -21 -8 -3 -15 -17 -15 -32 0 -21 3 -25 18 -19 9 4 36 9 58 12 l41 5 13 -53 c7 -30 19 -68 27 -86 7 -18 14 -78 15 -138 4 -162 18 -124 18 49 0 222 8 245 64 190 23 -24 26 -25 28 -8 3 43 -4 80 -19 94 -14 13 -15 13 -10 -2 10 -28 -18 -22 -38 8 -15 23 -21 26 -57 20 -47 -8 -76 8 -57 31 9 10 14 11 19 2 4 -6 9 5 12 25 2 20 2 36 -2 36 -3 0 -26 -22 -52 -49z m18 -100 c-5 -8 -13 -8 -27 -1 -15 9 -17 13 -7 25 11 11 15 11 27 0 7 -7 10 -18 7 -24z m108 8 c-3 -5 -17 -9 -31 -9 -21 0 -23 3 -14 14 12 15 55 10 45 -5z m-41 -64 c2 -11 3 -8 2 8 -1 15 2 27 7 27 10 0 10 -30 0 -85 l-7 -40 -16 57 c-15 54 -14 78 2 61 4 -5 9 -17 12 -28z"/>
<path d="M1125 1915 c13 -25 25 -51 28 -58 2 -6 7 -9 11 -5 9 7 -26 79 -47 96 -9 8 -5 -6 8 -33z"/>
<path d="M1188 1910 c3 -23 8 -37 14 -34 6 4 8 -1 4 -14 -5 -15 -2 -22 11 -25 15 -4 14 -5 -3 -6 -20 -1 -21 -4 -12 -43 5 -24 7 -50 5 -60 -3 -11 2 -20 15 -24 28 -9 43 9 29 34 -6 11 -11 29 -11 39 1 12 5 8 15 -12 18 -40 18 -24 0 54 -15 61 -48 131 -64 131 -3 0 -5 -18 -3 -40z"/>
<path d="M1907 1925 c-24 -33 -39 -75 -27 -75 6 0 15 12 20 28 6 15 15 35 21 45 16 28 7 29 -14 2z"/>
<path d="M1066 1422 c-50 -11 -93 -52 -130 -121 -20 -39 -33 -71 -28 -71 14 0 20 -102 8 -120 -6 -8 -1 -6 12 4 31 27 28 8 -5 -26 -19 -20 -37 -28 -62 -28 -34 -1 -35 -1 -16 -16 13 -10 32 -14 54 -10 l34 5 -5 -122 c-4 -97 -3 -109 4 -57 23 170 50 251 92 281 5 4 6 13 3 21 -3 8 -1 21 3 29 5 7 8 -84 7 -209 -2 -254 10 -250 23 8 5 96 12 194 15 217 7 41 8 42 31 27 23 -16 23 -15 17 20 -3 19 -2 47 2 63 13 55 25 -3 28 -135 1 -72 5 -128 10 -125 4 2 7 74 7 159 0 143 1 155 18 152 13 -3 17 -13 17 -46 0 -23 3 -42 6 -42 8 0 24 41 38 93 9 34 1 50 -14 27 -7 -12 -90 -2 -125 15 -14 6 -34 10 -44 7z m-23 -93 c-13 -13 -26 -16 -49 -11 l-31 7 19 30 c12 21 18 25 18 13 0 -25 17 -22 31 4 l12 22 9 -24 c7 -18 4 -28 -9 -41z m62 2 c-3 -12 -13 -27 -20 -35 -8 -8 -18 -49 -23 -93 l-9 -78 -2 68 c-1 65 14 122 41 154 14 18 21 10 13 -16z m-95 -71 c0 -11 -4 -20 -9 -20 -5 0 -14 -22 -21 -50 -7 -27 -15 -50 -19 -50 -15 0 -20 13 -10 29 18 31 32 76 30 94 -1 10 4 17 13 17 9 0 16 -9 16 -20z m-55 -39 c-8 -50 -25 -64 -25 -22 0 17 5 31 10 31 6 0 10 10 10 22 0 12 3 19 6 15 3 -3 3 -24 -1 -46z"/>
<path d="M1937 1413 c-15 -14 -121 -22 -136 -10 -12 10 -13 8 -8 -13 4 -14 7 -35 7 -46 0 -12 9 -32 21 -45 l20 -24 -6 23 c-9 31 2 72 19 72 20 0 24 -38 18 -180 -2 -70 -1 -130 4 -133 5 -3 10 43 10 103 2 117 10 184 23 175 15 -8 21 -64 10 -91 -9 -26 -9 -26 15 -11 23 16 24 15 30 -9 4 -15 11 -110 17 -213 5 -102 13 -201 17 -219 6 -27 7 279 2 368 l-2 25 -7 -25 c-5 -18 -9 -5 -14 48 -4 51 -12 80 -26 99 -21 26 -28 53 -13 53 16 0 62 -109 62 -146 0 -13 5 -24 11 -24 7 0 8 -12 4 -32 -5 -25 -4 -29 4 -18 8 10 11 11 11 2 0 -7 11 -29 24 -50 25 -37 39 -94 55 -227 7 -55 8 -43 4 59 -6 127 -6 128 15 117 29 -15 57 -14 72 4 11 13 8 15 -18 15 -18 0 -43 10 -61 26 -33 27 -41 47 -16 38 12 -5 15 4 15 49 0 32 5 57 11 59 8 3 4 19 -11 47 -21 42 -23 43 -62 38 -31 -4 -44 -1 -59 14 -10 10 -16 25 -13 34 8 19 20 19 28 0 8 -22 26 -18 26 4 0 35 -79 69 -103 44z m122 -150 c-2 -10 7 -38 20 -63 12 -25 20 -34 17 -20 -3 14 -8 41 -10 60 -2 19 -1 25 1 13 2 -13 9 -23 14 -23 12 0 11 -61 -1 -80 -9 -13 -12 -12 -25 4 -8 11 -15 33 -15 48 0 16 -7 31 -15 34 -20 8 -19 44 1 44 9 0 14 -7 13 -17z"/>
</g>
</svg>